# xmcd CD database file generated by OrangeCD 4.3
#
# Track frame offsets:
#	150
#	20765
#	36632
#	50961
#	67522
#	84586
#	99038
#	122565
#	136418
#	150203
#	163185
#	178875
#	192170
#	205737
#	219699
#	239892
#
# Disc length: 3472 seconds
#
# Revision: 0
# Processed by: cddbd v1.4PL0 Copyright (c) Steve Scherf et al.
# Submitted via: OrangeCD 4.3
#
DISCID=e40d8e10
DTITLE=X-Ray - Monster Mixes Volume 1
DYEAR=1900
DGENRE=East Coast
TTITLE0=Monster Island Czars - Run The Sphere (Remix)
TTITLE1=Gigan - Live Wirez
TTITLE2=Kurious - Fastlane
TTITLE3=Megalon and Kong - Gorilla Warfare
TTITLE4=Monster Island Czars - Blindfold
TTITLE5=Kong - Broken Nose Flow
TTITLE6=Darcmind - You Da One
TTITLE7=King Ghidra - Micline
TTITLE8=Spiga - I See It All
TTITLE9=Quiz - Newyork, Newyork
TTITLE10=M.F. Grimm - The Original
TTITLE11=Megalon and Tommy Gunn - Feel It
TTITLE12=Ray Long - We Got Beef Wit Da Cops
TTITLE13=Kamackeris - Untouchable
TTITLE14=Rodan and Megalon - Century 21
TTITLE15=M.F. Doom and X-Ray - Doomsday (Remix)
EXTD=
EXTT0=
EXTT1=
EXTT2=
EXTT3=
EXTT4=
EXTT5=
EXTT6=
EXTT7=
EXTT8=
EXTT9=
EXTT10=
EXTT11=
EXTT12=
EXTT13=
EXTT14=
EXTT15=
PLAYORDER=
